<?xml version="1.0" encoding="UTF-8" standalone="no"?>
<svg
   xmlns:dc="http://purl.org/dc/elements/1.1/"
   xmlns:cc="http://creativecommons.org/ns#"
   xmlns:rdf="http://www.w3.org/1999/02/22-rdf-syntax-ns#"
   xmlns:svg="http://www.w3.org/2000/svg"
   xmlns="http://www.w3.org/2000/svg"
   xmlns:xlink="http://www.w3.org/1999/xlink"
   xmlns:sodipodi="http://sodipodi.sourceforge.net/DTD/sodipodi-0.dtd"
   xmlns:inkscape="http://www.inkscape.org/namespaces/inkscape"
   viewBox="0 0 34.599998 30.799999"
   version="1.1"
   id="svg378"
   sodipodi:docname="gcp-logo.svg"
   width="34.599998"
   height="30.799999"
   inkscape:version="0.92.1 r">
  <metadata
     id="metadata382">
    <rdf:RDF>
      <cc:Work
         rdf:about="">
        <dc:format>image/svg+xml</dc:format>
        <dc:type
           rdf:resource="http://purl.org/dc/dcmitype/StillImage" />
      </cc:Work>
    </rdf:RDF>
  </metadata>
  <sodipodi:namedview
     pagecolor="#ffffff"
     bordercolor="#666666"
     borderopacity="1"
     objecttolerance="10"
     gridtolerance="10"
     guidetolerance="10"
     inkscape:pageopacity="0"
     inkscape:pageshadow="2"
     inkscape:window-width="668"
     inkscape:window-height="480"
     id="namedview380"
     showgrid="false"
     inkscape:zoom="2.2657343"
     inkscape:cx="102.96049"
     inkscape:cy="33.454321"
     inkscape:window-x="0"
     inkscape:window-y="23"
     inkscape:window-maximized="0"
     inkscape:current-layer="svg378" />
  <style
     type="text/css"
     id="style224">
.st0{fill:none;}
.st1{clip-path:url(#SVGID_2_);}
.st2{fill:#547DBF;}
.st3{fill:url(#SVGID_3_);}
.st4{fill:url(#SVGID_4_);}
.st5{fill:#2D3079;fill-opacity:0.1;}
.st6{fill:#FFCE40;}
.st7{fill:url(#SVGID_5_);}
.st8{fill:#DB4436;}
.st9{fill:url(#SVGID_6_);}
.st10{fill:url(#SVGID_7_);}
.st11{fill:#3E2723;fill-opacity:5.000000e-02;}
.st12{clip-path:url(#SVGID_9_);}
.st13{fill:#EEEEEE;}
.st14{clip-path:url(#SVGID_11_);}
.st15{fill:#FFFFFF;fill-opacity:0.4;}
.st16{fill:#262626;fill-opacity:5.000000e-02;}
.st17{fill:#BE3A26;fill-opacity:5.000000e-02;}
.st18{fill:#262626;fill-opacity:0.1;}
.st19{clip-path:url(#SVGID_2_);fill:url(#SVGID_12_);}
.st20{fill:#FFFFFF;fill-opacity:0.2;}
.st21{fill:#BE3A26;fill-opacity:0.1;}
.st22{fill:#3E2723;fill-opacity:0.2;}
.st23{fill:url(#SVGID_13_);}
.st24{opacity:0.54;}
.st25{clip-path:url(#SVGID_15_);fill:none;}
.st26{clip-path:url(#SVGID_15_);}
</style>
  <symbol
     id="logo_x5F_dark"
     viewBox="0 -136 416 136"
     transform="translate(-1.2,-3)">
    <path
       d="m 0.7,-52.6 c 0,29 24.3,52.5 53.3,52.5 16,0 27.4,-6.3 36,-14.5 L 79.8,-24.7 c -6.1,5.8 -14.4,10.3 -25.8,10.3 -21.1,0 -37.6,-17 -37.6,-38.1 0,-21.1 16.5,-38.1 37.6,-38.1 13.7,0 21.5,5.5 26.5,10.5 4.1,4.1 6.8,10 7.8,18 H 54 v 14.3 h 48.3 c 0.5,-2.6 0.8,-5.6 0.8,-9 0,-10.8 -2.9,-24.1 -12.4,-33.5 C 81.4,-99.9 69.6,-105 54,-105 25,-105 0.7,-81.5 0.7,-52.6 Z M 142,-37.5 c -18.7,0 -33.9,-14.2 -33.9,-33.8 0,-19.5 15.2,-33.8 33.9,-33.8 18.7,0 33.9,14.3 33.9,33.8 0,19.6 -15.2,33.8 -33.9,33.8 z m 0,-54.2 c -10.2,0 -19.1,8.4 -19.1,20.5 0,12.2 8.8,20.5 19.1,20.5 10.2,0 19.1,-8.3 19.1,-20.5 0,-12.1 -8.9,-20.5 -19.1,-20.5 z m 74,54.2 c -18.7,0 -33.9,-14.2 -33.9,-33.8 0,-19.5 15.2,-33.8 33.9,-33.8 18.7,0 33.9,14.3 33.9,33.8 0,19.6 -15.2,33.8 -33.9,33.8 z m 0,-54.2 c -10.2,0 -19.1,8.4 -19.1,20.5 0,12.2 8.8,20.5 19.1,20.5 10.3,0 19.1,-8.3 19.1,-20.5 0,-12.1 -8.9,-20.5 -19.1,-20.5 z m 90.8,52.2 V -45 h -0.5 c -3.3,4 -9.7,7.6 -17.8,7.6 -16.9,0 -32.4,-14.8 -32.4,-33.9 0,-18.9 15.5,-33.7 32.4,-33.7 8.1,0 14.5,3.6 17.8,7.7 h 0.5 v -4.9 c 0,-12.9 -6.9,-19.8 -18,-19.8 -9.1,0 -14.7,6.5 -17,12 l -12.9,-5.4 c 3.7,-9 13.6,-20 30,-20 17.4,0 32.1,10.2 32.1,35.2 v 60.7 z m -17,-52.2 c -10.2,0 -18.8,8.6 -18.8,20.4 0,11.9 8.6,20.6 18.8,20.6 10.1,0 18,-8.7 18,-20.6 0.1,-11.9 -7.9,-20.4 -18,-20.4 z"
       id="path226"
       inkscape:connector-curvature="0" />
    <polygon
       points="331.2,-3.7 346,-3.7 346,-103 331.2,-103 "
       id="polygon228" />
    <path
       d="m 386.7,-91.7 c -7.6,0 -12.9,3.5 -16.4,10.2 l 45.2,18.7 -1.5,3.8 c -2.8,7.6 -11.4,21.5 -28.9,21.5 -17.4,0 -31.9,-13.7 -31.9,-33.8 0,-18.9 14.3,-33.8 33.5,-33.8 15.5,0 24.4,9.5 28.2,15 l -11.5,7.7 c -3.9,-5.6 -9.1,-9.3 -16.7,-9.3 z m -1.1,41.2 c 5.9,0 10.9,-2.9 12.5,-7.2 l -30.2,-12.5 c -0.4,13 10.1,19.7 17.7,19.7 z"
       id="path230"
       inkscape:connector-curvature="0" />
    <polygon
       class="st0"
       points="416,0 0,0 0,-136 416,-136 "
       id="polygon232"
       style="fill:none" />
  </symbol>
  <rect
     x="4.7683717e-08"
     y="-3.0999999"
     class="st0"
     width="283.29999"
     height="36.900002"
     id="rect235"
     style="fill:none" />
  <defs
     id="defs238">
    <inkscape:perspective
       sodipodi:type="inkscape:persp3d"
       inkscape:vp_x="0 : 18 : 1"
       inkscape:vp_y="0 : 999.99999 : 0"
       inkscape:vp_z="286 : 18 : 1"
       inkscape:persp3d-origin="143 : 12 : 1"
       id="perspective394" />
    <path
       id="SVGID_1_"
       d="M 35.5,17.2 30.9,9.1 28,4.1 C 27.6,3.5 26.9,3 26,3 H 11 C 10.2,3 9.4,3.4 9,4.2 l -4.6,8.1 -2.9,5 c -0.4,0.7 -0.4,1.6 0,2.3 l 7.5,13 c 0.4,0.7 1.2,1.2 2,1.2 h 15 c 0.8,0 1.6,-0.4 2,-1.2 l 7.5,-13.1 c 0.4,-0.7 0.4,-1.5 0,-2.3 z M 18.4,23 c -2.5,0 -4.6,-2.1 -4.6,-4.6 0,-2.5 2.1,-4.6 4.6,-4.6 2.5,0 4.6,2.1 4.6,4.6 0,2.5 -2,4.6 -4.6,4.6 z"
       inkscape:connector-curvature="0" />
  </defs>
  <clipPath
     id="SVGID_2_">
    <use
       xlink:href="#SVGID_1_"
       id="use240"
       x="0"
       y="0"
       width="100%"
       height="100%" />
  </clipPath>
  <g
     class="st1"
     clip-path="url(#SVGID_2_)"
     id="g288"
     transform="translate(-1.2,-3)">
    <path
       class="st2"
       d="M 13.2,9.2 H 30.9 L 28,4.2 C 27.6,3.5 26.9,3 26,3 H 11 C 10.2,3 9.4,3.4 9,4.2 l -4.6,8.1 8.8,15.3 V 9.2 Z"
       id="path243"
       inkscape:connector-curvature="0"
       style="fill:#547dbf" />
    <linearGradient
       id="SVGID_3_"
       gradientUnits="userSpaceOnUse"
       x1="7.5665002"
       y1="17.7773"
       x2="15.2215"
       y2="13.3472">
      <stop
         offset="0"
         style="stop-color:#2D3079;stop-opacity:0.2"
         id="stop245" />
      <stop
         offset="0.66"
         style="stop-color:#2D3079;stop-opacity:0"
         id="stop247" />
    </linearGradient>
    <path
       class="st3"
       d="M 13.2,9.2 H 30.9 L 28,4.2 C 27.6,3.5 26.9,3 26,3 H 11 C 10.2,3 9.4,3.4 9,4.2 l -4.6,8.1 8.8,15.3 V 9.2 Z"
       id="path250"
       inkscape:connector-curvature="0"
       style="fill:url(#SVGID_3_)" />
    <linearGradient
       id="SVGID_4_"
       gradientUnits="userSpaceOnUse"
       x1="3.6782"
       y1="12.9316"
       x2="8.1960001"
       y2="17.449301">
      <stop
         offset="0"
         style="stop-color:#2D3079;stop-opacity:0.2"
         id="stop252" />
      <stop
         offset="1"
         style="stop-color:#2D3079;stop-opacity:4.000000e-02"
         id="stop254" />
    </linearGradient>
    <polygon
       class="st4"
       points="8.1,18.8 4.4,12.3 8.9,16.7 "
       id="polygon257"
       style="fill:url(#SVGID_4_)" />
    <polygon
       class="st5"
       points="4.4,12.3 8.1,18.8 8.3,18.7 4.9,12.8 "
       id="polygon259"
       style="fill:#2d3079;fill-opacity:0.1" />
    <path
       class="st6"
       d="m 13.2,27.6 -8.8,-15.3 -2.9,5 c -0.4,0.7 -0.4,1.6 0,2.3 l 7.5,13 c 0.4,0.7 1.2,1.2 2,1.2 h 9.3 l 8.9,-15.4 z"
       id="path261"
       inkscape:connector-curvature="0"
       style="fill:#ffce40" />
    <linearGradient
       id="SVGID_5_"
       gradientUnits="userSpaceOnUse"
       x1="23.4972"
       y1="28.255899"
       x2="15.9109"
       y2="23.814199">
      <stop
         offset="0"
         style="stop-color:#BE3A26;stop-opacity:0.15"
         id="stop263" />
      <stop
         offset="0.66"
         style="stop-color:#BE3A26;stop-opacity:0"
         id="stop265" />
    </linearGradient>
    <path
       class="st7"
       d="m 13.2,27.6 -8.8,-15.3 -2.9,5 c -0.4,0.7 -0.4,1.6 0,2.3 l 7.5,13 c 0.4,0.7 1.2,1.2 2,1.2 h 9.3 l 8.9,-15.4 z"
       id="path268"
       inkscape:connector-curvature="0"
       style="fill:url(#SVGID_5_)" />
    <path
       class="st8"
       d="M 30.9,9.2 H 13.2 l 15.9,9.2 -8.9,15.4 H 26 c 0.8,0 1.6,-0.4 2,-1.2 l 7.5,-13.1 c 0.4,-0.7 0.4,-1.6 0,-2.3 z"
       id="path270"
       inkscape:connector-curvature="0"
       style="fill:#db4436" />
    <linearGradient
       id="SVGID_6_"
       gradientUnits="userSpaceOnUse"
       x1="24.5277"
       y1="9.4043999"
       x2="24.5277"
       y2="18.2022">
      <stop
         offset="0"
         style="stop-color:#A52822;stop-opacity:0.2"
         id="stop272" />
      <stop
         offset="0.66"
         style="stop-color:#A52822;stop-opacity:0"
         id="stop274" />
    </linearGradient>
    <path
       class="st9"
       d="M 30.9,9.2 H 13.2 l 15.9,9.2 -8.9,15.4 H 26 c 0.8,0 1.6,-0.4 2,-1.2 l 7.5,-13.1 c 0.4,-0.7 0.4,-1.6 0,-2.3 z"
       id="path277"
       inkscape:connector-curvature="0"
       style="fill:url(#SVGID_6_)" />
    <linearGradient
       id="SVGID_7_"
       gradientUnits="userSpaceOnUse"
       x1="18.701099"
       y1="18.0951"
       x2="30.0119"
       y2="29.405899">
      <stop
         offset="0"
         style="stop-color:#3E2723;stop-opacity:0.15"
         id="stop279" />
      <stop
         offset="1"
         style="stop-color:#3E2723;stop-opacity:0"
         id="stop281" />
    </linearGradient>
    <polygon
       class="st10"
       points="35.8,33.8 20.3,33.8 23.8,27.6 23.8,9.2 35.8,21.2 "
       id="polygon284"
       style="fill:url(#SVGID_7_)" />
    <rect
       x="23.700001"
       y="9.1999998"
       class="st11"
       width="7.5"
       height="0.2"
       id="rect286" />
  </g>
  <g
     class="st1"
     clip-path="url(#SVGID_2_)"
     id="g304"
     transform="translate(-1.2,-3)">
    <defs
       id="defs291">
      <path
         id="SVGID_8_"
         d="M 30.9,9.2 H 13.2 l 15.9,9.2 -8.9,15.4 H 26 c 0.8,0 1.6,-0.4 2,-1.2 l 7.5,-13.1 c 0.4,-0.7 0.4,-1.6 0,-2.3 z"
         inkscape:connector-curvature="0" />
    </defs>
    <clipPath
       id="SVGID_9_">
      <use
         xlink:href="#SVGID_8_"
         id="use293"
         x="0"
         y="0"
         width="100%"
         height="100%" />
    </clipPath>
    <g
       class="st12"
       clip-path="url(#SVGID_9_)"
       id="g298">
      <path
         class="st13"
         d="m 23.8,9.2 5.3,9.2 -5.3,9.2 H 13.2 L 7.9,18.4 13.2,9.2 h 10.6"
         id="path296"
         inkscape:connector-curvature="0"
         style="fill:#eeeeee" />
    </g>
    <g
       class="st12"
       clip-path="url(#SVGID_9_)"
       id="g302">
      <path
         class="st2"
         d="M 13.2,9.2 H 30.9 L 28,4.2 C 27.6,3.5 26.9,3 26,3 H 11 C 10.2,3 9.4,3.4 9,4.2 l -4.6,8.1 8.8,15.3 V 9.2 Z"
         id="path300"
         inkscape:connector-curvature="0"
         style="fill:#547dbf" />
    </g>
  </g>
  <g
     class="st1"
     clip-path="url(#SVGID_2_)"
     id="g316"
     transform="translate(-1.2,-3)">
    <defs
       id="defs307">
      <path
         id="SVGID_10_"
         d="m 13.2,27.6 -8.8,-15.3 -2.9,5 c -0.4,0.7 -0.4,1.6 0,2.3 l 7.5,13 c 0.4,0.7 1.2,1.2 2,1.2 h 9.3 l 8.9,-15.4 z"
         inkscape:connector-curvature="0" />
    </defs>
    <clipPath
       id="SVGID_11_">
      <use
         xlink:href="#SVGID_10_"
         id="use309"
         x="0"
         y="0"
         width="100%"
         height="100%" />
    </clipPath>
    <g
       class="st14"
       clip-path="url(#SVGID_11_)"
       id="g314">
      <path
         class="st13"
         d="m 23.8,9.2 5.3,9.2 -5.3,9.2 H 13.2 L 7.9,18.4 13.2,9.2 h 10.6"
         id="path312"
         inkscape:connector-curvature="0"
         style="fill:#eeeeee" />
    </g>
  </g>
  <g
     class="st1"
     clip-path="url(#SVGID_2_)"
     id="g328"
     transform="translate(-1.2,-3)">
    <path
       class="st13"
       d="m 23.8,9.2 5.3,9.2 -5.3,9.2 H 13.2 L 7.9,18.4 13.2,9.2 h 10.6"
       id="path318"
       inkscape:connector-curvature="0"
       style="fill:#eeeeee" />
    <polygon
       class="st15"
       points="29.2,18.4 23.8,9.2 13.2,9.2 7.9,18.4 8,18.4 13.2,9.4 23.8,9.4 29,18.4 "
       id="polygon320"
       style="fill:#ffffff;fill-opacity:0.4" />
    <polygon
       class="st16"
       points="13.2,27.4 8,18.4 7.9,18.4 13.2,27.6 23.8,27.6 29.2,18.4 29,18.4 23.8,27.4 "
       id="polygon322" />
    <polygon
       class="st17"
       points="13.2,27.6 7.9,18.4 7.9,18.6 13.2,27.8 23.8,27.8 29.2,18.6 29.2,18.4 23.8,27.6 "
       id="polygon324" />
    <path
       class="st18"
       d="m 18.4,13.6 c -2.5,0 -4.6,2.1 -4.6,4.6 H 23 c 0.1,-2.5 -2,-4.6 -4.6,-4.6 z m -4.6,5 c 0,2.5 2.1,4.6 4.6,4.6 2.5,0 4.6,-2.1 4.6,-4.6 z"
       id="path326"
       inkscape:connector-curvature="0"
       style="fill:#262626;fill-opacity:0.1" />
  </g>
  <linearGradient
     id="SVGID_12_"
     gradientUnits="userSpaceOnUse"
     x1="18.5329"
     y1="27.618299"
     x2="18.5329"
     y2="33.7384">
    <stop
       offset="0"
       style="stop-color:#3E2723;stop-opacity:0.15"
       id="stop330" />
    <stop
       offset="3.546852e-02"
       style="stop-color:#462823;stop-opacity:0.1447"
       id="stop332" />
    <stop
       offset="0.2522"
       style="stop-color:#712E24;stop-opacity:0.1122"
       id="stop334" />
    <stop
       offset="0.4625"
       style="stop-color:#923325;stop-opacity:8.062769e-02"
       id="stop336" />
    <stop
       offset="0.6619"
       style="stop-color:#AA3726;stop-opacity:5.071827e-02"
       id="stop338" />
    <stop
       offset="0.8459"
       style="stop-color:#B93926;stop-opacity:2.311477e-02"
       id="stop340" />
    <stop
       offset="1"
       style="stop-color:#BE3A26;stop-opacity:0"
       id="stop342" />
  </linearGradient>
  <polygon
     class="st19"
     points="20.3,33.8 23.8,27.6 13.2,27.6 19.4,33.8 "
     clip-path="url(#SVGID_2_)"
     id="polygon345"
     style="fill:url(#SVGID_12_)"
     transform="translate(-1.2,-3)" />
  <g
     class="st1"
     clip-path="url(#SVGID_2_)"
     id="g349"
     transform="translate(-1.2,-3)">
    <path
       class="st20"
       d="M 4.4,12.5 9,4.4 C 9.4,3.7 10.2,3.2 11,3.2 h 15 c 0.8,0 1.6,0.4 2,1.2 l 2.9,5 4.6,8.1 c 0.2,0.3 0.3,0.7 0.3,1.1 0,-0.4 -0.1,-0.9 -0.3,-1.2 L 30.9,9.3 28,4.3 C 27.6,3.5 26.9,3 26,3 H 11 C 10.2,3 9.4,3.4 9,4.2 l -4.6,8.1 -2.9,5 c -0.2,0.4 -0.3,0.8 -0.3,1.2 0,-0.4 0.1,-0.7 0.3,-1.1 z M 11,33.6 c -0.8,0 -1.6,-0.4 -2,-1.2 L 4.4,24.3 1.5,19.3 C 1.3,19 1.2,18.6 1.2,18.2 c 0,0.4 0.1,0.9 0.3,1.2 l 2.9,5 4.6,8.2 c 0.4,0.7 1.2,1.2 2,1.2 h 9.3 l 0.1,-0.2 z M 35.8,18.3 c 0,0.4 -0.1,0.7 -0.3,1.1 l -4.6,8.1 -2.9,5 c -0.4,0.7 -1.2,1.2 -2,1.2 h -5.6 l -0.1,0.2 H 26 c 0.8,0 1.6,-0.4 2,-1.2 l 2.9,-5 4.6,-8.1 c 0.2,-0.4 0.3,-0.9 0.3,-1.3 z"
       id="path347"
       inkscape:connector-curvature="0"
       style="fill:#ffffff;fill-opacity:0.2" />
  </g>
  <radialGradient
     id="SVGID_13_"
     cx="9.8634005"
     cy="3.5288999"
     r="34.5676"
     gradientTransform="matrix(0.00645727,0,0,0.00645727,2211.4196,-4571.3096)"
     gradientUnits="userSpaceOnUse">
    <stop
       offset="0"
       style="stop-color:#FFFFFF;stop-opacity:0.1"
       id="stop351" />
    <stop
       offset="1"
       style="stop-color:#FFFFFF;stop-opacity:0"
       id="stop353" />
  </radialGradient>
  <path
     class="st23"
     d="M 34.3,14.2 29.7,6.1 26.8,1.1 C 26.4,0.5 25.7,0 24.8,0 H 9.8 C 9,0 8.2,0.4 7.8,1.2 l -4.6,8.1 -2.9,5 c -0.4,0.7 -0.4,1.6 0,2.3 l 7.5,13 c 0.4,0.7 1.2,1.2 2,1.2 h 15 c 0.8,0 1.6,-0.4 2,-1.2 l 7.5,-13.1 c 0.4,-0.7 0.4,-1.5 0,-2.3 z M 17.2,20 c -2.5,0 -4.6,-2.1 -4.6,-4.6 0,-2.5 2.1,-4.6 4.6,-4.6 2.5,0 4.6,2.1 4.6,4.6 0,2.5 -2,4.6 -4.6,4.6 z"
     id="path356"
     inkscape:connector-curvature="0"
     style="fill:url(#SVGID_13_)" />
  <rect
     x="4.7683717e-08"
     y="-3.0999999"
     class="st0"
     width="34.599998"
     height="36.900002"
     id="rect358"
     style="fill:none" />
</svg>