<?xml version="1.0" encoding="utf-8"?>
<!-- Generator: Adobe Illustrator 16.0.0, SVG Export Plug-In . SVG Version: 6.00 Build 0)  -->
<!DOCTYPE svg PUBLIC "-//W3C//DTD SVG 1.0//EN" "http://www.w3.org/TR/2001/REC-SVG-20010904/DTD/svg10.dtd">
<svg version="1.0" id="Layer_1" xmlns="http://www.w3.org/2000/svg" xmlns:xlink="http://www.w3.org/1999/xlink" x="0px" y="0px"
	 width="800px" height="800px" viewBox="0 0 800 800" enable-background="new 0 0 800 800" xml:space="preserve">
<g id="Layer_2" transform="translate(37.000000, 0.000000)">
	
		<linearGradient id="Shape_1_" gradientUnits="userSpaceOnUse" x1="242.4238" y1="525.3418" x2="239.1159" y2="518.7284" gradientTransform="matrix(113.8031 0 0 -102.0104 -27034.8379 53697.2344)">
		<stop  offset="0" style="stop-color:#50FFD2"/>
		<stop  offset="1" style="stop-color:#0064FF"/>
	</linearGradient>
	<path id="Shape" fill="url(#Shape_1_)" d="M89.188,332.652c-2.414-0.022-4.784-0.673-6.881-1.883l-66.702-39.046
		c-6.161-3.458-9.046-10.848-6.881-17.64c2.654-7.442,10.746-11.307,18.101-8.649c0.807,0.26,1.572,0.634,2.273,1.118l66.769,39.045
		c6.551,3.862,9.116,12.146,5.917,19.107C99.387,329.533,94.526,332.601,89.188,332.652z M204.484,215.511
		c-5.015,0.035-9.67-2.616-12.251-6.971l-38.479-67.565c-3.67-6.091-2.543-13.967,2.687-18.755c2.814-2.545,6.538-3.804,10.301-3.49
		c3.759,0.317,7.227,2.184,9.59,5.162c0.561,0.656,1.066,1.357,1.515,2.094l38.478,67.213c3.955,6.523,2.342,15.021-3.717,19.594
		C210.235,214.512,207.401,215.46,204.484,215.511z M347.868,157.5V80.801c-0.135-7.979,5.905-14.678,13.763-15.27
		c3.791-0.167,7.486,1.213,10.259,3.838c2.772,2.623,4.387,6.267,4.471,10.109c0,0,0,0.416,0,0.627v78.232
		c0,7.931-6.347,14.361-14.179,14.361h-0.622C353.76,172.076,347.766,165.431,347.868,157.5z M519.537,215.511
		c-2.889,0.016-5.7-0.884-8.057-2.578c-6.059-4.646-7.614-13.211-3.58-19.734l38.482-67.492c3.919-6.836,12.552-9.199,19.341-5.299
		c0.717,0.464,1.408,0.976,2.062,1.533c5.2,4.8,6.327,12.658,2.689,18.755l-38.552,67.566
		C529.387,212.767,524.653,215.537,519.537,215.511z M634.829,332.652c-5.231-0.009-10.048-2.927-12.525-7.602
		c-3.382-7.103-0.691-15.643,6.129-19.453L694.65,266.9c5.943-3.717,13.667-2.571,18.303,2.719c2.529,2.833,3.798,6.596,3.51,10.403
		c-0.283,3.811-2.101,7.333-5.021,9.747c-0.628,0.589-1.318,1.102-2.063,1.534l-67.46,39.466
		C639.761,332.015,637.314,332.665,634.829,332.652z M182.666,659.246c-66.958-67.401-91.418-166.896-63.48-258.229
		c27.935-91.334,103.644-159.391,196.49-176.637c92.848-17.243,187.468,19.18,245.572,94.534
		c4.336,5.578,8.466,11.435,12.251,17.291l-23.542,15.76c-3.368-5.229-6.878-10.39-10.938-15.341
		c-51.489-67.39-135.748-100.118-218.518-84.883c-82.77,15.236-150.27,75.904-175.059,157.336
		c-24.79,81.428-2.742,170.073,57.185,229.874L182.666,659.246z M542.796,734.482H152.515
		c-43.484-0.313-85.063-18.131-115.571-49.517c-30.51-31.387-47.448-73.781-47.086-117.829h28.226
		c-0.366,36.479,13.608,71.599,38.843,97.61c25.232,26.021,59.651,40.802,95.658,41.078h390.076
		c65.418,0.339,124.873-38.451,151.625-98.932c26.742-60.474,15.734-131.245-28.069-180.461l20.652-19.104
		c50.907,57.728,63.581,140.365,32.36,211.016c-31.214,70.648-100.494,116.138-176.907,116.138H542.796z M18.084,567.483h-28.22
		c0.378-80.621,57.999-149.261,136.497-162.601l4.678,27.896C66.038,443.846,18.347,500.72,18.084,567.483z M377.123,536.948
		h-28.294c0.57-81.082,50.299-153.464,125.162-182.17c74.863-28.707,159.448-7.826,212.878,52.551l-20.652,19.104
		c-45.418-52.173-117.978-70.441-182.223-45.878C419.735,405.114,377.188,467.388,377.123,536.948z"/>
</g>
</svg>
